<?xml version="1.0" standalone="no"?>
<!DOCTYPE svg PUBLIC "-//W3C//DTD SVG 20010904//EN"
 "http://www.w3.org/TR/2001/REC-SVG-20010904/DTD/svg10.dtd">
<svg version="1.0" xmlns="http://www.w3.org/2000/svg"
 width="700.000000pt" height="700.000000pt" viewBox="0 0 700.000000 700.000000"
 preserveAspectRatio="xMidYMid meet">
<metadata>
Created by potrace 1.14, written by Peter Selinger 2001-2017
</metadata>
<g transform="translate(0.000000,700.000000) scale(0.100000,-0.100000)"
fill="#000000" stroke="none">
<path d="M1490 6989 c-691 -80 -1260 -573 -1435 -1244 -57 -221 -56 -155 -52
-2300 3 -1809 5 -1977 20 -2055 55 -271 158 -510 310 -716 65 -89 252 -276
341 -341 206 -152 445 -255 716 -310 78 -15 245 -17 2035 -20 1396 -3 1982 -1
2062 7 758 76 1356 635 1490 1391 17 99 18 206 18 2099 0 1893 -1 2000 -18
2099 -47 266 -152 513 -310 727 -28 38 -105 123 -171 189 -273 273 -610 432
-998 474 -119 13 -3895 13 -4008 0z m2389 -1334 c172 -41 314 -171 372 -342
31 -89 33 -240 5 -323 -96 -285 -387 -435 -661 -340 -241 83 -392 344 -341
590 62 299 338 482 625 415z m-818 -1216 c236 -18 472 -48 554 -69 99 -26 247
-96 329 -154 73 -53 173 -149 321 -310 122 -132 180 -176 235 -176 33 0 202
56 551 184 114 41 149 52 149 43 0 -1 34 -99 75 -217 42 -117 74 -219 71 -225
-2 -6 -19 -16 -37 -22 -19 -6 -165 -58 -325 -116 -160 -58 -325 -113 -367
-121 -153 -32 -297 -16 -422 46 -108 54 -172 103 -292 226 -67 69 -104 100
-107 91 -17 -48 -127 -486 -137 -542 -23 -139 -1 -166 187 -221 222 -65 385
-136 484 -209 273 -202 830 -727 830 -782 0 -7 -74 -82 -165 -165 l-165 -151
-137 114 c-199 164 -652 527 -702 561 -36 25 -99 43 -394 112 -406 95 -488
119 -576 171 -201 118 -292 286 -278 512 5 80 24 162 116 496 60 220 107 402
104 405 -2 3 -71 5 -152 5 -146 0 -147 0 -215 -34 -57 -28 -93 -59 -224 -193
-87 -88 -206 -205 -265 -260 l-109 -101 -174 174 c-96 96 -173 177 -172 181 2
4 129 130 284 281 302 294 377 354 517 407 167 65 332 81 608 59z m38 -2178
c129 -50 239 -95 243 -99 23 -23 -240 -425 -337 -515 -67 -63 -221 -130 -502
-220 -123 -40 -381 -103 -388 -95 -7 8 -177 509 -174 512 2 1 74 12 159 24
182 25 303 57 417 112 114 54 167 107 255 256 40 68 78 122 83 120 6 -2 115
-45 244 -95z"/>
</g>
</svg>
