<?xml version="1.0" standalone="no"?>
<!DOCTYPE svg PUBLIC "-//W3C//DTD SVG 20010904//EN"
 "http://www.w3.org/TR/2001/REC-SVG-20010904/DTD/svg10.dtd">
<svg version="1.0" xmlns="http://www.w3.org/2000/svg"
 width="700.000000pt" height="700.000000pt" viewBox="0 0 700.000000 700.000000"
 preserveAspectRatio="xMidYMid meet">
<metadata>
Created by potrace 1.14, written by Peter Selinger 2001-2017
</metadata>
<g transform="translate(0.000000,700.000000) scale(0.100000,-0.100000)"
fill="#000000" stroke="none">
<path d="M1525 6985 c-134 -19 -260 -50 -375 -92 -631 -234 -1063 -787 -1140
-1458 -14 -124 -14 -3746 0 -3870 84 -733 603 -1333 1307 -1510 225 -56 174
-55 2181 -55 1170 0 1880 4 1937 10 204 23 386 75 572 164 361 174 641 453
814 811 93 193 144 369 169 580 14 124 14 3746 0 3870 -58 505 -316 945 -728
1243 -118 85 -359 203 -502 246 -257 76 -80 71 -2220 72 -1568 2 -1933 0
-2015 -11z m2159 -1289 c-112 -456 -249 -1252 -354 -2061 -29 -225 -40 -282
-40 -224 0 13 -5 68 -10 123 -22 220 -30 584 -20 812 26 576 129 1005 314
1316 47 81 139 208 150 208 2 0 -16 -78 -40 -174z m-726 -962 c80 -555 300
-1481 486 -2049 24 -74 43 -135 41 -135 -2 0 -39 56 -84 125 -264 406 -493
921 -612 1375 -30 114 -33 138 -33 270 0 156 16 246 68 384 26 69 92 186 104
186 4 0 18 -70 30 -156z m-500 -835 c320 -558 885 -1323 1276 -1726 l109 -113
-69 33 c-746 354 -1334 823 -1537 1223 -76 149 -75 331 1 513 31 73 122 235
128 228 2 -2 44 -73 92 -158z m-480 -832 c621 -483 1699 -1061 2585 -1387 l82
-30 -55 6 c-231 24 -794 137 -1224 245 -750 188 -1428 439 -1591 590 -110 101
-121 245 -35 436 29 63 120 223 128 223 2 0 52 -37 110 -83z m-268 -860 c885
-280 2404 -594 3485 -722 262 -31 538 -55 630 -55 219 -1 -29 -40 -500 -80
-376 -31 -593 -40 -1125 -47 -866 -10 -1707 31 -2510 123 -311 35 -386 63
-426 161 -46 110 26 356 183 629 33 57 38 61 62 54 14 -4 105 -33 201 -63z"/>
</g>
</svg>
